<?xml version="1.0" standalone="no"?>
<!DOCTYPE svg PUBLIC "-//W3C//DTD SVG 20010904//EN"
 "http://www.w3.org/TR/2001/REC-SVG-20010904/DTD/svg10.dtd">
<svg version="1.0" xmlns="http://www.w3.org/2000/svg"
 width="200.000000pt" height="200.000000pt" viewBox="0 0 200.000000 200.000000"
 preserveAspectRatio="xMidYMid meet">

<g transform="translate(0.000000,200.000000) scale(0.100000,-0.100000)"
fill="#000000" stroke="none">
<path d="M358 1234 c-65 -20 -130 -86 -153 -154 -39 -117 12 -247 116 -300 46
-24 49 -24 49 -6 0 8 -9 18 -21 21 -32 11 -88 65 -110 106 -25 50 -24 59 6 59
20 0 25 -5 25 -25 0 -23 4 -25 45 -25 l45 0 0 67 c0 67 -1 68 -46 114 -28 29
-43 52 -39 59 5 8 23 -4 56 -36 l49 -48 0 -73 0 -73 65 -1 c36 -1 70 -2 77 -3
6 -1 13 5 16 12 3 9 -15 12 -67 12 l-71 0 0 64 c0 44 -5 67 -15 76 -20 17 -19
23 7 39 19 12 23 11 39 -10 15 -20 20 -22 31 -11 11 11 8 17 -14 34 -21 15
-28 28 -28 54 0 29 3 34 24 34 13 0 26 7 30 15 7 20 -50 19 -116 -1z m42 -51
c-1 -28 -7 -42 -24 -55 -22 -16 -24 -16 -38 0 -41 50 -41 48 4 71 24 11 46 21
51 21 4 0 7 -17 7 -37z m-116 -87 c9 -14 6 -22 -19 -41 -22 -18 -27 -27 -18
-36 13 -13 33 -4 33 15 0 8 7 19 15 26 27 23 45 -5 45 -71 0 -56 -1 -59 -24
-59 -18 0 -25 6 -28 23 -2 17 -11 23 -35 25 -30 3 -33 6 -33 38 0 44 26 107
42 102 6 -2 16 -12 22 -22z"/>
<path d="M497 1236 c-7 -17 11 -36 35 -36 13 0 18 -8 18 -25 0 -21 -5 -25 -30
-25 -27 0 -30 -3 -31 -35 -1 -19 -2 -41 -3 -47 -1 -7 6 -13 14 -13 11 0 14 9
12 38 -3 32 -1 37 17 37 18 0 21 -6 21 -44 0 -58 -34 -89 -95 -84 -30 2 -40
-1 -40 -12 0 -11 10 -14 40 -11 22 1 48 7 58 13 29 15 47 -8 47 -60 0 -32 6
-52 21 -68 l20 -22 -33 -24 c-50 -38 -63 -39 -89 -12 -13 14 -34 24 -51 24
-23 0 -28 4 -28 25 0 23 4 25 44 25 37 0 48 -5 64 -27 17 -24 23 -26 34 -14
10 11 10 14 0 18 -7 3 -19 11 -26 19 -21 21 -136 20 -136 -1 0 -13 -7 -15 -36
-9 -29 5 -36 4 -32 -7 3 -9 16 -13 36 -11 24 2 32 -1 32 -12 0 -11 10 -16 33
-16 41 0 81 -35 53 -46 -9 -3 -25 -4 -36 -1 -11 3 -21 -1 -24 -9 -8 -22 81
-17 134 7 99 45 144 116 145 229 0 64 -4 82 -28 122 -25 43 -122 128 -146 128
-5 0 -11 -6 -14 -14z m121 -127 c-14 -8 -18 -23 -18 -65 0 -40 3 -54 13 -51 8
2 11 19 9 50 -3 37 -1 47 11 47 36 0 41 -123 8 -188 -24 -47 -28 -49 -47 -24
-22 28 -17 52 9 49 14 -1 22 3 22 13 0 9 -8 14 -20 13 -14 -2 -25 8 -37 35
-11 22 -14 38 -8 40 6 2 10 38 10 80 l0 77 33 -33 c29 -30 30 -34 15 -43z"/>
<path d="M950 1121 c0 -17 6 -21 31 -21 24 0 30 4 27 18 -2 10 -14 18 -31 20
-22 3 -27 -1 -27 -17z"/>
<path d="M800 1120 c-18 -11 -26 -133 -11 -172 10 -26 15 -28 65 -28 63 0 76
13 76 74 0 35 -1 36 -40 36 -29 0 -40 -4 -40 -15 0 -8 5 -15 10 -15 6 0 10
-12 10 -26 0 -16 -5 -24 -12 -22 -8 3 -14 29 -16 71 -2 55 0 67 13 67 8 0 15
-7 15 -15 0 -10 10 -15 30 -15 23 0 30 5 30 19 0 32 -28 51 -73 51 -23 0 -49
-4 -57 -10z"/>
<path d="M1137 1123 c-4 -3 -7 -51 -7 -105 l0 -98 30 0 30 0 0 105 c0 103 0
105 -23 105 -13 0 -27 -3 -30 -7z"/>
<path d="M1040 1095 c0 -8 -4 -15 -10 -15 -5 0 -10 -9 -10 -20 0 -11 5 -20 10
-20 6 0 10 -22 10 -48 0 -53 12 -72 47 -72 16 0 23 6 23 20 0 11 -4 20 -10 20
-17 0 -12 77 5 84 20 7 19 22 -5 46 -24 24 -60 27 -60 5z"/>
<path d="M950 1000 l0 -80 30 0 30 0 0 80 0 80 -30 0 -30 0 0 -80z"/>
<path d="M1220 1061 c-22 -41 1 -81 46 -81 15 0 24 -6 24 -15 0 -8 -4 -15 -10
-15 -5 0 -10 5 -10 10 0 6 -13 10 -30 10 -33 0 -35 -3 -20 -31 8 -14 21 -19
53 -19 57 0 69 10 65 51 -3 29 -7 35 -33 39 -20 3 -31 12 -33 25 -3 16 -1 18
9 8 17 -17 59 -17 59 0 0 24 -24 37 -67 37 -32 0 -45 -5 -53 -19z"/>
<path d="M1372 1068 c-7 -7 -12 -24 -12 -40 0 -29 23 -48 59 -48 12 0 21 -4
21 -9 0 -15 -18 -23 -25 -11 -9 15 -55 12 -55 -4 0 -24 27 -37 71 -34 48 3 65
22 55 61 -5 22 -12 27 -36 27 -32 0 -48 16 -31 33 8 8 11 8 11 -1 0 -7 13 -12
30 -12 33 0 35 3 20 31 -8 14 -21 19 -53 19 -24 0 -48 -5 -55 -12z"/>
<path d="M1510 1011 c0 -43 5 -72 13 -79 6 -6 36 -10 65 -10 l52 -1 0 80 c0
78 0 79 -25 79 -24 0 -25 -3 -25 -60 0 -47 -3 -60 -15 -60 -12 0 -15 13 -15
60 0 57 -1 60 -25 60 -24 0 -25 -2 -25 -69z"/>
<path d="M1682 1068 c-7 -7 -12 -39 -12 -75 0 -57 2 -63 23 -69 13 -3 41 -4
63 -2 32 2 40 7 42 26 3 18 -1 22 -21 22 -14 0 -27 -5 -29 -12 -5 -15 -28 -1
-28 18 0 10 12 14 40 14 40 0 40 0 40 39 0 26 -5 41 -16 45 -27 10 -89 7 -102
-6z m68 -43 c0 -8 -7 -15 -15 -15 -8 0 -15 7 -15 15 0 8 7 15 15 15 8 0 15 -7
15 -15z"/>
</g>
</svg>
